<?xml version="1.0" encoding="utf-8"?>
<!-- Generator: Adobe Illustrator 22.1.0, SVG Export Plug-In . SVG Version: 6.00 Build 0)  -->
<svg version="1.1" id="Layer_1" xmlns="http://www.w3.org/2000/svg" xmlns:xlink="http://www.w3.org/1999/xlink" x="0px" y="0px"
	 viewBox="0 0 512 512" style="enable-background:new 0 0 512 512;" xml:space="preserve">
<g>
	<path d="M382.6,87.2h-70.3c0-31-25.2-56.2-56.2-56.2s-56.2,25.2-56.2,56.2h-70.3c-23.3,0-42.2,18.9-42.2,42.2v309.4
		c0,23.3,18.9,42.2,42.2,42.2h253.1c23.3,0,42.2-18.9,42.2-42.2V129.4C424.8,106.1,405.9,87.2,382.6,87.2z M256,66.2
		c11.7,0,21.1,9.4,21.1,21.1s-9.4,21.1-21.1,21.1s-21.1-9.4-21.1-21.1S244.3,66.2,256,66.2z M382.6,433.5c0,2.9-2.4,5.3-5.3,5.3
		H134.7c-2.9,0-5.3-2.4-5.3-5.3V134.7c0-2.9,2.4-5.3,5.3-5.3h36.9v31.6c0,5.8,4.7,10.5,10.5,10.5h147.7c5.8,0,10.5-4.7,10.5-10.5
		v-31.6h36.9c2.9,0,5.3,2.4,5.3,5.3V433.5z"/>
</g>
</svg>
